<svg width="320" height="320" viewBox="0 0 320 320" fill="none" xmlns="http://www.w3.org/2000/svg">
<g clip-path="url(#clip0_166_168)">
<path d="M0 15C0 6.71573 6.71573 0 15 0H305C313.284 0 320 6.71573 320 15V305C320 313.284 313.284 320 305 320H15C6.71573 320 0 313.284 0 305V15Z" fill="#1C2024"/>
<path d="M251.982 125.327C251.519 125.327 251.022 125.28 250.492 125.187C250.028 125.095 249.531 124.955 249.001 124.77L230.813 118.713L213.222 112.796C212.029 112.425 211.433 111.496 211.433 110.011V66.6411C211.433 65.5272 211.963 64.599 213.023 63.8565L232.9 49.9335C234.027 49.1445 235.352 48.75 236.876 48.75H267.089C268.613 48.75 269.938 49.1445 271.065 49.9335L290.942 63.8565C292.002 64.599 292.532 65.5272 292.532 66.6411V95.1832H249.2V97.8286L257.449 100.404L276.531 104.233C277.26 104.28 277.624 104.999 277.624 106.391V123.586C277.624 124.746 276.796 125.327 275.139 125.327H251.982ZM253.274 81.9564H253.473C255.991 81.9564 257.879 81.4459 259.138 80.4249C260.463 79.4038 261.126 77.8955 261.126 75.8999V75.691C261.126 73.6954 260.463 72.1871 259.138 71.166C257.879 70.145 255.991 69.6345 253.473 69.6345H253.175C250.856 69.6345 249.034 70.145 247.709 71.166C246.45 72.1871 245.821 73.6954 245.821 75.691V75.8999C245.821 77.8955 246.45 79.4038 247.709 80.4249C248.968 81.4459 250.823 81.9564 253.274 81.9564Z" fill="white"/>
<path d="M149.176 125.327C147.681 125.327 146.381 124.932 145.275 124.143L125.773 110.22C124.733 109.478 124.213 108.549 124.213 107.436V50.4904C124.213 49.3301 125.026 48.75 126.651 48.75H157.464C159.09 48.75 159.902 49.3301 159.902 50.4904V96.9236C159.902 98.8264 161.267 99.7779 163.998 99.7779H168.093V50.4904C168.093 49.3301 168.906 48.75 170.531 48.75H201.344C202.969 48.75 203.782 49.3301 203.782 50.4904V123.586C203.782 124.746 202.969 125.327 201.344 125.327H149.176Z" fill="white"/>
<path d="M29.2972 218.75C27.6824 218.75 26.875 217.687 26.875 215.562V51.9383C26.875 49.8128 27.6824 48.75 29.2972 48.75H61.6981C63.3129 48.75 64.1203 49.8128 64.1203 51.9383V108.18H78.3797V51.9383C78.3797 49.8128 79.1871 48.75 80.8019 48.75H113.203C114.818 48.75 115.625 49.8128 115.625 51.9383V215.562C115.625 217.687 114.818 218.75 113.203 218.75H80.8019C79.1871 218.75 78.3797 217.687 78.3797 215.562V159.193H64.1203V215.562C64.1203 217.687 63.3129 218.75 61.6981 218.75H29.2972Z" fill="white"/>
<path d="M270.972 218.255C269.69 218.255 268.576 217.89 267.628 217.162L253.667 206.488C252.776 205.76 252.33 204.902 252.33 203.916V168.938H248.819C247.426 168.938 246.729 168.403 246.729 167.331V149.135C246.729 148.063 247.426 147.527 248.819 147.527H252.33V139.49C252.33 138.418 253.027 137.882 254.42 137.882H280.836C282.23 137.882 282.926 138.418 282.926 139.49V147.527H291.035C292.428 147.527 293.125 148.063 293.125 149.135V167.331C293.125 168.403 292.428 168.938 291.035 168.938H282.926V194.657C282.926 195.515 283.261 196.201 283.929 196.715L292.122 203.016C292.679 203.445 292.958 204.088 292.958 204.945V216.647C292.958 217.719 292.261 218.255 290.868 218.255H270.972Z" fill="#54E1DB"/>
<path d="M213.105 218.255C211.712 218.255 211.015 217.719 211.015 216.647V149.135C211.015 148.063 211.712 147.527 213.105 147.527H239.521C240.915 147.527 241.611 148.063 241.611 149.135V216.647C241.611 217.719 240.915 218.255 239.521 218.255H213.105ZM212.687 142.19C211.572 142.19 211.015 141.762 211.015 140.904V132.739C211.015 131.881 211.572 131.453 212.687 131.453H240.107C241.11 131.453 241.611 131.881 241.611 132.739V140.904C241.611 141.762 241.11 142.19 240.107 142.19H212.687Z" fill="#54E1DB"/>
<path d="M126.896 218.255C125.503 218.255 124.806 217.719 124.806 216.647V134.153C124.806 133.082 125.503 132.546 126.896 132.546H157.492C158.886 132.546 159.582 133.082 159.582 134.153V159.294H160.836L166.186 143.219L169.363 133.382C169.474 132.996 169.809 132.76 170.366 132.674C170.979 132.589 171.536 132.546 172.038 132.546H200.294C201.687 132.546 202.384 133.082 202.384 134.153V150.742C202.384 151.128 202.272 151.471 202.049 151.771C201.826 152.071 201.603 152.414 201.38 152.8L189.259 173.696L187.921 175.497L189.259 177.554L203.387 199.094C203.665 199.437 203.833 199.801 203.888 200.187C204 200.53 204.056 200.98 204.056 201.537V216.647C204.056 217.719 203.359 218.255 201.966 218.255H173.376C172.93 218.255 172.428 218.19 171.871 218.062C171.369 217.933 171.035 217.676 170.868 217.29L165.768 205.395L160.836 194.143H159.582V216.647C159.582 217.719 158.886 218.255 157.492 218.255H126.896Z" fill="#54E1DB"/>
<path d="M0 305.625H320V320.625H0V305.625Z" fill="#52E0D9"/>
<path d="M0 291.25H320V306.25H0V291.25Z" fill="#9EF0F0"/>
<path d="M0 276.875H320V291.875H0V276.875Z" fill="#D4F7F6"/>
<path d="M0 262.5H320V277.5H0V262.5Z" fill="#F1FCFA"/>
</g>
<defs>
<clipPath id="clip0_166_168">
<path d="M0 15C0 6.71573 6.71573 0 15 0H305C313.284 0 320 6.71573 320 15V305C320 313.284 313.284 320 305 320H15C6.71573 320 0 313.284 0 305V15Z" fill="white"/>
</clipPath>
</defs>
</svg>
